<?xml version="1.0" standalone="no"?>
<!DOCTYPE svg PUBLIC "-//W3C//DTD SVG 20010904//EN"
 "http://www.w3.org/TR/2001/REC-SVG-20010904/DTD/svg10.dtd">
<svg version="1.0" xmlns="http://www.w3.org/2000/svg"
 width="149.000000pt" height="149.000000pt" viewBox="0 0 149.000000 149.000000"
 preserveAspectRatio="xMidYMid meet">
<metadata>
Created by potrace 1.11, written by Peter Selinger 2001-2013
</metadata>
<g transform="translate(0.000000,149.000000) scale(0.100000,-0.100000)"
fill="#000000" stroke="none">
<path d="M277 1077 c-114 -111 -208 -206 -207 -212 0 -5 28 -38 62 -72 l63
-63 142 142 143 143 143 -143 142 -142 140 140 c77 77 143 139 147 137 4 -1
72 -64 151 -140 l145 -137 61 67 60 68 -207 207 -207 208 -142 -142 -143 -143
-142 142 -143 142 -208 -202z"/>
<path d="M417 642 l-67 -67 210 -210 210 -210 186 185 c102 102 195 198 206
213 l21 29 -59 59 c-32 32 -63 59 -69 59 -5 0 -72 -62 -147 -137 l-138 -138
-143 143 -142 142 -68 -68z"/>
</g>
</svg>
